<svg version="1" xmlns="http://www.w3.org/2000/svg" width="682.667" height="682.667" viewBox="0 0 512.000000 512.000000"><path d="M41.5 1C23.2 4.8 8.5 18 2.4 36 .6 41.3.5 49.4.5 256s.1 214.7 1.9 220c5.2 15.4 16.8 27.4 32.2 33.2l5.9 2.3h431l5.9-2.3c15.4-5.8 27-17.8 32.2-33.2 1.8-5.3 1.9-13.4 1.9-220s-.1-214.7-1.9-220c-5.2-15.4-16.8-27.4-32.2-33.2L471.5.5l-213-.1C141.3.3 43.7.6 41.5 1zm167.3 163.3c40 75.4 47.8 89.6 48.8 88.2.7-.9 22.1-41.4 47.5-90.1L351.5 74h42.3l.6 3.7c1.1 6.6 47.6 357.6 47.6 359 0 1-5.3 1.3-25.8 1.3h-25.9l-16.7-135.3c-9.2-74.3-17-136-17.4-136.9-.5-1.2-15.8 27.2-49.6 91.7-26.9 51.4-49.2 93.2-49.6 93-.4-.2-23.2-42.6-50.6-94.1-27.5-51.4-50-93-50.2-92.2-.1.7-7.6 61.1-16.7 134.3-9 73.1-16.7 134.5-17 136.3l-.6 3.2H69.8l.6-2.7c.3-1.6 11.1-81.8 24.1-178.3 12.9-96.5 23.7-177.2 24.1-179.3l.6-3.7 21 .2 21.1.3 47.5 89.8z"/></svg>